<svg width="18" height="18" viewBox="0 0 18 18" fill="none" xmlns="http://www.w3.org/2000/svg">
  <g clip-path="url(#clip0_1_896)">
    <path
      d="M12.7601 3.48191C13.1792 3.48191 13.5812 3.64841 13.8776 3.94478C14.174 4.24115 14.3405 4.64312 14.3405 5.06225"
      stroke="white" stroke-width="1.06667" stroke-linecap="round" stroke-linejoin="round"/>
    <path d="M13.5502 1.11125C15.2964 1.11125 16.7108 2.52565 16.7108 4.27192" stroke="white" stroke-width="1.06667"
          stroke-linecap="round" stroke-linejoin="round"/>
    <path
      d="M14.3404 7.43275V11.3836C14.3404 11.8027 14.1739 12.2047 13.8776 12.501C13.5812 12.7974 13.1793 12.964 12.7601 12.964H3.27809C2.85895 12.964 2.45699 12.7974 2.16063 12.501C1.86425 12.2047 1.69775 11.8027 1.69775 11.3836V5.06225C1.69775 4.64312 1.86425 4.24115 2.16063 3.94478C2.45699 3.64841 2.85895 3.48191 3.27809 3.48191H10.3896"
      stroke="white" stroke-width="1.06667" stroke-linecap="round" stroke-linejoin="round"/>
    <path d="M4.85828 15.3335H11.1796" stroke="white" stroke-width="1.06667" stroke-linecap="round"
          stroke-linejoin="round"/>
  </g>
  <defs>
    <clipPath id="clip0_1_896">
      <rect width="18" height="18" fill="white"/>
    </clipPath>
  </defs>
</svg>
