<svg width="18" height="18" viewBox="0 0 18 18" fill="none" xmlns="http://www.w3.org/2000/svg">
  <path
    d="M14.837 15.7777H2.98515C2.59223 15.7777 2.21541 15.6216 1.93758 15.3437C1.65975 15.0659 1.50366 14.6891 1.50366 14.2961V3.9258C1.50366 3.53289 1.65975 3.15607 1.93758 2.87824C2.21541 2.6004 2.59223 2.44432 2.98515 2.44432H14.837C15.2299 2.44432 15.6067 2.6004 15.8846 2.87824C16.1624 3.15607 16.3185 3.53289 16.3185 3.9258V14.2961C16.3185 14.6891 16.1624 15.0659 15.8846 15.3437C15.6067 15.6216 15.2299 15.7777 14.837 15.7777Z"
    stroke="white" stroke-width="1.06667" stroke-linecap="round" stroke-linejoin="round"/>
  <path d="M1.50366 6.14799H16.3185" stroke="white" stroke-width="1.06667" stroke-linecap="round"
        stroke-linejoin="round"/>
  <path d="M5.94812 6.14813L6.68886 2.44443" stroke="white" stroke-width="1.06667" stroke-linecap="round"
        stroke-linejoin="round"/>
  <path d="M11.1332 6.14813L11.8739 2.44443" stroke="white" stroke-width="1.06667" stroke-linecap="round"
        stroke-linejoin="round"/>
</svg>
