<?xml version="1.0" standalone="no"?>
<!DOCTYPE svg PUBLIC "-//W3C//DTD SVG 20010904//EN"
 "http://www.w3.org/TR/2001/REC-SVG-20010904/DTD/svg10.dtd">
<svg version="1.0" xmlns="http://www.w3.org/2000/svg"
 width="3264.000000pt" height="3264.000000pt" viewBox="0 0 3264.000000 3264.000000"
 preserveAspectRatio="xMidYMid meet">
<metadata>
Created by potrace 1.14, written by Peter Selinger 2001-2017
</metadata>
<g transform="translate(0.000000,3264.000000) scale(0.100000,-0.100000)"
fill="#000000" stroke="none">
<path d="M10731 24473 c-11 -13 -15 -13 -22 -1 -5 7 -9 9 -9 3 0 -5 -24 -11
-53 -13 -72 -3 -87 -5 -87 -12 0 -3 -22 -5 -49 -5 -27 0 -47 -3 -45 -7 2 -4
-4 -7 -13 -7 -61 0 -135 -17 -145 -33 -6 -10 -8 -10 -8 1 0 11 -3 11 -17 0
-13 -11 -15 -11 -9 -1 6 11 4 11 -13 3 -12 -6 -30 -16 -42 -22 -15 -7 -19 -7
-14 0 3 6 2 11 -4 11 -5 0 -11 -4 -13 -9 -3 -9 -36 -19 -78 -24 -8 -1 -17 -5
-20 -9 -3 -4 -18 -9 -34 -12 -15 -3 -34 -10 -41 -16 -8 -7 -19 -9 -25 -5 -5 3
-10 1 -10 -6 0 -7 -3 -9 -7 -6 -3 4 -12 2 -20 -5 -7 -6 -16 -8 -20 -5 -3 4
-12 -1 -20 -11 -8 -9 -11 -11 -8 -3 6 9 1 9 -17 -3 -14 -9 -28 -13 -31 -9 -4
3 -7 2 -7 -4 0 -10 -36 -26 -52 -24 -5 1 -8 -3 -8 -7 0 -4 -10 -9 -22 -9 -13
-1 -28 -10 -35 -19 -6 -9 -16 -13 -22 -9 -6 3 -11 2 -11 -3 0 -8 -26 -21 -52
-26 -4 0 -17 -9 -28 -18 -11 -10 -27 -18 -35 -18 -8 0 -15 -4 -15 -9 0 -7 -22
-17 -45 -20 -13 -2 -32 -27 -27 -35 3 -5 0 -6 -6 -2 -16 9 -64 -23 -55 -38 4
-6 -1 -5 -10 3 -14 11 -18 11 -23 -3 -3 -9 -11 -16 -16 -16 -5 0 -19 -10 -30
-22 -11 -13 -17 -16 -13 -8 4 10 2 9 -8 -2 -8 -10 -20 -18 -26 -18 -7 0 -9 -5
-5 -12 5 -8 2 -9 -10 -5 -9 4 -15 3 -13 -1 5 -9 -30 -42 -37 -35 -3 4 -6 1 -6
-6 0 -7 -4 -9 -10 -6 -5 3 -10 1 -10 -4 0 -6 -7 -11 -16 -11 -8 0 -13 -4 -10
-9 3 -4 -6 -13 -20 -20 -14 -6 -22 -16 -19 -21 3 -6 -3 -10 -15 -10 -12 0 -18
-4 -15 -10 3 -5 2 -10 -3 -10 -5 0 -27 -16 -48 -35 -21 -19 -42 -35 -46 -35
-4 0 -8 -7 -8 -15 0 -8 -9 -19 -20 -25 -11 -6 -18 -15 -15 -20 3 -6 -1 -7 -9
-4 -9 3 -17 -2 -21 -15 -4 -12 -11 -18 -17 -15 -8 5 -9 1 -5 -10 4 -10 3 -15
-3 -11 -6 3 -10 1 -10 -5 0 -6 -5 -8 -10 -5 -6 4 -9 1 -8 -7 2 -7 -3 -12 -10
-10 -6 1 -11 -1 -11 -5 3 -21 -3 -32 -22 -38 -11 -4 -18 -9 -15 -12 3 -3 -6
-17 -20 -30 -14 -12 -23 -23 -20 -23 3 0 -4 -11 -16 -25 -11 -13 -26 -22 -31
-18 -6 3 -7 1 -3 -5 3 -6 2 -13 -4 -17 -6 -4 -7 -11 -4 -17 4 -6 2 -8 -3 -5
-11 7 -28 -20 -24 -36 1 -5 -2 -6 -6 -4 -5 3 -14 -1 -21 -9 -7 -8 -10 -14 -7
-14 4 0 -1 -7 -9 -16 -9 -8 -13 -20 -10 -26 4 -6 2 -8 -3 -5 -14 9 -37 -19
-28 -33 3 -5 -1 -10 -9 -10 -10 0 -13 -6 -9 -17 4 -11 3 -14 -5 -9 -7 4 -12 1
-12 -8 0 -8 -8 -20 -17 -25 -14 -8 -15 -11 -3 -11 9 -1 6 -5 -7 -10 -15 -6
-21 -15 -17 -25 3 -8 1 -15 -5 -15 -6 0 -11 -12 -11 -27 0 -20 -3 -24 -9 -15
-6 10 -10 7 -15 -12 -4 -15 -11 -24 -16 -21 -5 3 -7 -4 -5 -15 2 -13 -1 -20
-11 -20 -8 0 -13 -3 -10 -8 7 -12 -29 -83 -39 -75 -4 5 -5 0 -2 -9 4 -10 2
-18 -4 -18 -6 0 -7 -5 -4 -10 3 -6 -3 -24 -15 -40 -12 -16 -19 -34 -16 -39 4
-5 0 -11 -6 -13 -7 -3 -13 -11 -14 -19 -2 -25 -16 -59 -25 -59 -4 0 -6 -9 -4
-21 3 -16 0 -19 -12 -15 -13 5 -14 4 -3 -9 8 -10 9 -15 2 -15 -6 0 -9 -7 -6
-15 4 -8 1 -15 -6 -15 -7 0 -10 -7 -6 -15 3 -8 -2 -19 -12 -24 -9 -6 -12 -11
-5 -11 9 0 8 -7 -2 -27 -8 -15 -12 -30 -9 -35 3 -4 0 -8 -6 -8 -6 0 -10 -6 -8
-12 1 -7 -4 -30 -11 -51 -7 -21 -10 -45 -7 -53 3 -8 2 -12 -3 -9 -5 3 -12 1
-16 -5 -3 -5 -1 -10 6 -10 9 0 9 -4 -1 -15 -6 -8 -9 -19 -5 -25 3 -5 1 -10 -4
-10 -6 0 -11 -5 -11 -11 0 -5 5 -7 12 -3 6 4 4 -3 -5 -16 -13 -19 -14 -27 -4
-39 9 -12 9 -13 0 -7 -9 5 -13 1 -14 -11 -2 -40 -7 -69 -15 -87 -6 -15 -4 -17
7 -11 11 7 12 6 2 -6 -6 -8 -14 -34 -17 -59 -2 -25 -7 -56 -10 -69 -3 -14 0
-31 7 -40 10 -12 9 -13 -2 -6 -11 6 -13 2 -9 -19 3 -14 2 -29 -3 -32 -5 -2 -4
-16 1 -29 6 -16 6 -27 -2 -31 -7 -5 -8 -3 -3 6 5 8 4 11 -3 6 -6 -4 -9 -13 -6
-21 4 -8 11 -12 17 -8 6 3 3 -4 -6 -17 -12 -18 -14 -27 -5 -37 8 -10 7 -13 -2
-13 -9 0 -10 -3 -1 -13 8 -10 7 -17 -1 -25 -9 -9 -9 -12 1 -12 10 0 11 -3 3
-13 -7 -8 -7 -18 -2 -27 5 -8 5 -21 -1 -32 -7 -13 -6 -18 3 -18 9 0 9 -3 0
-12 -7 -7 -8 -17 -1 -30 7 -12 6 -18 -1 -18 -7 0 -8 -6 -1 -19 6 -10 8 -21 5
-24 -8 -8 -9 -101 -1 -113 3 -6 2 -16 -3 -24 -5 -9 -5 -19 2 -27 7 -9 7 -13
-1 -13 -8 0 -9 -6 -2 -18 6 -11 6 -24 0 -35 -7 -12 -6 -17 2 -17 8 0 9 -4 0
-13 -8 -10 -7 -17 1 -25 7 -7 8 -12 2 -12 -5 0 -10 -9 -10 -20 0 -11 4 -20 8
-20 5 0 4 -9 -2 -20 -7 -13 -7 -20 -1 -20 7 0 7 -8 1 -24 -5 -15 -5 -27 3 -35
6 -6 7 -11 1 -11 -5 0 -10 -9 -10 -20 0 -11 4 -20 9 -20 5 0 4 -6 -2 -14 -8
-10 -9 -16 -1 -21 6 -3 7 -12 3 -18 -11 -18 -11 -47 0 -47 5 0 5 -5 -1 -13 -7
-8 -7 -18 -2 -27 5 -8 5 -21 -1 -32 -5 -10 -6 -18 -2 -18 10 0 10 -47 0 -57
-4 -3 -2 -12 4 -19 7 -8 7 -14 -1 -19 -8 -5 -8 -10 0 -20 8 -9 8 -15 0 -20 -7
-4 -7 -12 0 -26 6 -10 7 -19 2 -19 -9 0 -8 -42 1 -57 3 -5 2 -15 -3 -23 -5 -9
-5 -19 2 -27 7 -9 7 -13 -1 -13 -8 0 -9 -5 -2 -18 5 -10 6 -24 1 -32 -5 -8 -5
-21 0 -30 5 -9 5 -22 0 -30 -5 -9 -5 -19 2 -27 7 -9 7 -13 -1 -13 -9 0 -9 -5
0 -21 8 -15 8 -19 0 -15 -8 5 -8 0 -1 -18 6 -17 6 -27 -1 -32 -7 -4 -6 -10 1
-19 8 -10 8 -15 0 -20 -8 -5 -8 -10 0 -20 8 -9 8 -15 0 -20 -7 -4 -7 -12 0
-26 6 -10 7 -19 3 -19 -10 0 -10 -41 1 -58 4 -7 3 -12 -1 -12 -5 0 -9 -9 -9
-20 0 -11 4 -20 9 -20 5 0 4 -6 -2 -14 -8 -10 -9 -16 -1 -21 6 -3 7 -12 3 -18
-11 -18 -11 -47 0 -47 5 0 5 -5 -1 -13 -7 -8 -7 -18 -2 -27 5 -8 5 -21 -1 -32
-5 -10 -6 -18 -2 -18 10 0 10 -47 0 -57 -4 -3 -2 -12 4 -19 7 -8 7 -14 -1 -19
-8 -5 -8 -10 0 -20 8 -9 8 -15 0 -20 -7 -4 -7 -12 0 -26 6 -10 7 -19 2 -19 -9
0 -8 -42 1 -57 3 -5 2 -15 -3 -23 -5 -9 -5 -19 2 -27 7 -9 7 -13 -1 -13 -8 0
-9 -5 -2 -18 5 -10 6 -24 1 -32 -5 -8 -5 -21 0 -30 5 -9 5 -22 0 -30 -5 -9 -5
-19 2 -27 7 -9 7 -13 -1 -13 -9 0 -9 -5 0 -21 8 -15 8 -19 0 -15 -8 5 -8 0 -1
-18 6 -17 6 -27 -1 -32 -7 -4 -6 -10 1 -19 8 -10 8 -15 0 -20 -8 -5 -8 -10 0
-20 8 -10 8 -15 0 -20 -8 -5 -8 -10 0 -20 8 -10 8 -15 0 -20 -8 -5 -8 -10 0
-20 8 -10 8 -15 0 -20 -8 -5 -8 -10 0 -20 8 -10 8 -15 0 -20 -8 -5 -8 -10 0
-20 8 -9 8 -15 0 -20 -7 -4 -7 -12 0 -26 6 -10 7 -19 2 -19 -9 0 -8 -42 1 -57
3 -5 2 -15 -3 -23 -5 -9 -5 -19 2 -27 7 -9 7 -13 -1 -13 -8 0 -9 -5 -2 -18 5
-10 6 -24 1 -32 -5 -8 -5 -21 0 -30 5 -9 5 -22 0 -30 -5 -9 -5 -19 2 -27 7 -9
7 -13 -1 -13 -9 0 -9 -5 0 -21 8 -15 8 -19 0 -15 -8 5 -8 0 -1 -18 6 -17 6
-27 -1 -32 -7 -4 -6 -10 1 -19 8 -10 8 -15 0 -20 -8 -5 -8 -10 0 -20 8 -10 8
-15 0 -20 -8 -5 -8 -10 0 -20 8 -10 8 -15 0 -20 -8 -5 -8 -10 0 -20 8 -10 8
-15 0 -20 -8 -5 -8 -10 0 -20 8 -10 8 -15 0 -20 -8 -5 -8 -10 0 -20 8 -9 8
-15 0 -20 -7 -4 -7 -12 0 -26 6 -10 7 -19 2 -19 -9 0 -8 -42 1 -57 3 -5 2 -15
-3 -23 -5 -9 -5 -19 2 -27 7 -9 7 -13 -1 -13 -8 0 -9 -5 -2 -18 5 -10 6 -24 1
-32 -5 -8 -5 -21 0 -30 5 -9 5 -22 0 -30 -5 -9 -5 -19 2 -27 7 -9 7 -13 -1
-13 -9 0 -9 -5 0 -21 8 -15 8 -19 0 -15 -8 5 -8 0 -1 -18 6 -17 6 -27 -1 -32
-7 -4 -6 -10 1 -19 8 -10 8 -15 0 -20 -8 -5 -8 -10 0 -20 8 -10 8 -15 0 -20
-8 -5 -8 -10 0 -20 8 -10 8 -15 0 -20 -8 -5 -8 -10 0 -20 8 -10 8 -15 0 -20
-8 -5 -8 -10 0 -20 8 -10 8 -15 0 -20 -8 -5 -8 -10 0 -20 8 -9 8 -15 0 -20 -7
-4 -7 -12 0 -26 6 -10 7 -19 2 -19 -9 0 -8 -42 1 -57 3 -5 2 -15 -3 -23 -5 -9
-5 -19 2 -27 7 -9 7 -13 -1 -13 -8 0 -9 -5 -2 -18 5 -10 6 -24 1 -32 -5 -8 -5
-21 0 -30 5 -9 5 -22 0 -30 -5 -9 -5 -19 2 -27 7 -9 7 -13 -1 -13 -9 0 -9 -5
0 -21 8 -15 8 -19 0 -15 -8 5 -8 0 -1 -18 6 -17 6 -27 -1 -32 -7 -4 -6 -10 1
-19 8 -10 8 -15 0 -20 -8 -5 -8 -10 0 -20 8 -10 8 -15 0 -20 -8 -5 -8 -10 0
-20 6 -7 7 -16 3 -18 -10 -7 -10 -48 1 -65 4 -7 3 -12 -1 -12 -5 0 -9 -9 -9
-20 0 -11 4 -20 9 -20 5 0 4 -6 -2 -14 -8 -10 -9 -16 -1 -21 6 -3 7 -12 3 -18
-11 -18 -11 -47 0 -47 5 0 5 -5 -1 -13 -7 -8 -7 -18 -2 -27 5 -8 5 -21 -1 -32
-5 -10 -6 -18 -2 -18 10 0 10 -47 0 -57 -4 -3 -2 -12 4 -19 7 -8 7 -14 -1 -19
-8 -5 -8 -10 0 -20 8 -9 8 -15 0 -20 -7 -4 -7 -12 0 -26 6 -10 7 -19 2 -19 -9
0 -8 -42 1 -57 3 -5 2 -15 -3 -23 -5 -9 -5 -19 2 -27 7 -9 7 -13 -1 -13 -8 0
-9 -5 -2 -18 5 -10 6 -24 1 -32 -5 -8 -5 -21 0 -30 5 -9 5 -22 0 -30 -5 -9 -5
-19 2 -27 7 -9 7 -13 -1 -13 -9 0 -9 -5 0 -21 8 -15 8 -19 0 -15 -8 5 -8 0 -1
-18 6 -17 6 -27 -1 -32 -7 -4 -6 -10 1 -19 8 -10 8 -15 0 -20 -8 -5 -8 -10 0
-20 8 -9 8 -15 0 -20 -7 -4 -7 -12 0 -26 6 -10 7 -19 3 -19 -10 0 -10 -41 1
-58 4 -7 3 -12 -1 -12 -5 0 -9 -9 -9 -20 0 -11 4 -20 9 -20 5 0 4 -6 -2 -14
-8 -10 -9 -16 -1 -21 6 -3 7 -12 3 -18 -11 -18 -11 -47 0 -47 5 0 5 -5 -1 -13
-7 -8 -7 -18 -2 -27 5 -8 5 -21 -1 -32 -6 -12 -6 -18 0 -18 6 0 6 -11 1 -29
-4 -15 -4 -34 0 -42 5 -7 5 -20 0 -29 -6 -11 -5 -21 2 -28 9 -9 9 -12 0 -12
-9 0 -10 -5 -3 -18 6 -11 6 -24 0 -35 -7 -12 -6 -17 2 -17 8 0 9 -4 0 -13 -8
-10 -7 -17 1 -25 7 -7 8 -12 2 -12 -5 0 -10 -9 -10 -20 0 -11 4 -20 8 -20 5 0
4 -9 -2 -20 -8 -14 -8 -20 0 -20 7 0 8 -6 1 -18 -5 -10 -6 -24 -1 -32 5 -8 5
-21 0 -30 -6 -11 -5 -21 2 -28 9 -9 9 -12 0 -12 -9 0 -10 -5 -3 -18 6 -11 6
-24 0 -35 -7 -12 -6 -17 2 -17 8 0 9 -4 0 -13 -8 -10 -7 -17 1 -25 7 -7 8 -12
2 -12 -5 0 -10 -9 -10 -20 0 -11 4 -20 8 -20 5 0 4 -9 -2 -20 -7 -13 -7 -20
-1 -20 7 0 7 -8 1 -24 -5 -15 -5 -27 3 -35 6 -6 7 -11 1 -11 -5 0 -10 -9 -10
-20 0 -11 4 -20 9 -20 5 0 4 -6 -2 -14 -8 -10 -9 -16 -1 -21 6 -3 7 -12 3 -18
-11 -18 -11 -47 0 -47 5 0 5 -5 -1 -13 -7 -8 -7 -18 -2 -27 5 -8 5 -21 -1 -32
-5 -10 -6 -18 -2 -18 10 0 10 -47 0 -57 -4 -3 -2 -12 4 -19 7 -8 7 -14 -1 -19
-8 -5 -8 -10 0 -20 8 -9 8 -15 0 -20 -7 -4 -7 -12 0 -26 6 -10 7 -19 2 -19 -9
0 -8 -42 1 -57 3 -5 2 -15 -3 -23 -5 -9 -5 -19 2 -27 7 -9 7 -13 -1 -13 -8 0
-9 -5 -2 -18 5 -10 6 -24 1 -32 -5 -8 -5 -21 0 -30 5 -9 5 -22 0 -30 -5 -9 -5
-19 2 -27 7 -9 7 -13 -1 -13 -9 0 -9 -5 0 -21 8 -15 8 -19 0 -15 -8 5 -8 0 -1
-18 6 -17 6 -27 -1 -32 -7 -4 -6 -10 1 -19 8 -10 8 -15 0 -20 -8 -5 -8 -10 0
-20 8 -9 8 -15 0 -20 -7 -4 -7 -12 0 -26 6 -10 7 -19 3 -19 -10 0 -10 -41 1
-58 4 -7 3 -12 -1 -12 -5 0 -9 -9 -9 -20 0 -11 4 -20 9 -20 5 0 4 -6 -2 -14
-8 -10 -9 -16 -1 -21 6 -3 7 -12 3 -18 -11 -18 -11 -47 0 -47 5 0 5 -5 -1 -13
-7 -8 -7 -18 -2 -27 5 -8 5 -21 -1 -32 -6 -12 -6 -18 0 -18 6 0 6 -11 1 -29
-4 -15 -4 -34 0 -42 5 -7 5 -20 0 -29 -6 -11 -5 -21 2 -28 9 -9 9 -12 0 -12
-9 0 -10 -5 -3 -18 6 -11 6 -24 0 -35 -7 -12 -6 -17 2 -17 8 0 9 -4 0 -13 -8
-10 -7 -17 1 -25 7 -7 8 -12 2 -12 -5 0 -10 -9 -10 -20 0 -11 4 -20 8 -20 5 0
4 -9 -2 -20 -8 -14 -8 -20 0 -20 7 0 8 -6 1 -18 -5 -10 -6 -24 -1 -32 5 -8 5
-21 0 -30 -6 -11 -5 -21 2 -28 9 -9 9 -12 0 -12 -9 0 -10 -5 -3 -18 6 -11 6
-24 0 -35 -7 -12 -6 -17 2 -17 8 0 9 -4 0 -13 -8 -10 -7 -17 1 -25 7 -7 8 -12
2 -12 -5 0 -10 -9 -10 -20 0 -11 4 -20 8 -20 5 0 4 -9 -2 -20 -7 -13 -7 -20
-1 -20 7 0 7 -8 1 -24 -5 -15 -5 -27 3 -35 6 -6 7 -11 1 -11 -5 0 -10 -9 -10
-20 0 -11 4 -20 9 -20 5 0 4 -6 -2 -14 -8 -10 -9 -16 -1 -21 6 -3 7 -12 3 -18
-11 -18 -11 -47 0 -47 5 0 5 -5 -1 -13 -7 -8 -7 -18 -2 -27 5 -8 5 -21 -1 -32
-5 -10 -6 -18 -2 -18 10 0 10 -47 0 -57 -4 -3 -2 -12 4 -19 7 -8 7 -14 -1 -19
-8 -5 -8 -10 0 -20 8 -9 8 -15 0 -20 -7 -4 -7 -12 0 -26 6 -10 7 -19 2 -19 -9
0 -8 -42 1 -57 3 -5 2 -15 -3 -23 -5 -9 -5 -19 2 -27 7 -9 7 -13 -1 -13 -8 0
-9 -5 -2 -18 5 -10 6 -24 1 -32 -5 -8 -5 -21 0 -30 5 -9 5 -22 0 -30 -5 -9 -5
-19 2 -27 7 -9 7 -13 -1 -13 -9 0 -9 -5 0 -21 8 -15 8 -19 0 -15 -8 5 -8 0 -1
-18 6 -17 6 -27 -1 -32 -7 -4 -6 -10 1 -19 8 -10 8 -15 0 -20 -8 -5 -8 -10 0
-20 8 -9 8 -15 0 -20 -7 -4 -7 -12 0 -26 6 -10 7 -19 3 -19 -10 0 -10 -41 1
-58 4 -7 3 -12 -1 -12 -5 0 -9 -9 -9 -20 0 -11 4 -20 9 -20 5 0 4 -6 -2 -14
-8 -10 -9 -16 -1 -21 6 -3 7 -12 3 -18 -11 -18 -11 -47 0 -47 5 0 5 -5 -1 -13
-7 -8 -7 -18 -2 -27 5 -8 5 -21 -1 -32 -6 -12 -6 -18 0 -18 6 0 6 -11 1 -29
-4 -15 -4 -34 0 -42 5 -7 5 -20 0 -29 -6 -11 -5 -21 2 -28 9 -9 9 -12 0 -12
-9 0 -10 -5 -3 -18 6 -11 6 -24 0 -35 -7 -12 -6 -17 2 -17 8 0 9 -4 0 -13 -8
-10 -7 -17 1 -25 7 -7 8 -12 2 -12 -5 0 -10 -9 -10 -20 0 -11 4 -20 8 -20 5 0
4 -9 -2 -20 -8 -14 -8 -20 0 -20 7 0 8 -6 1 -18 -5 -10 -6 -24 -1 -32 5 -8 5
-21 0 -30 -6 -11 -5 -21 2 -28 9 -9 9 -12 0 -12 -9 0 -10 -5 -3 -18 6 -11 6
-24 0 -35 -7 -12 -6 -17 2 -17 8 0 9 -4 0 -13 -8 -10 -7 -17 1 -25 7 -7 8 -12
2 -12 -5 0 -10 -9 -10 -20 0 -11 4 -20 8 -20 5 0 4 -9 -2 -20 -7 -13 -7 -20
-1 -20 7 0 7 -8 1 -24 -5 -15 -5 -27 3 -35 6 -6 7 -11 1 -11 -5 0 -10 -9 -10
-20 0 -11 4 -20 9 -20 5 0 4 -6 -2 -14 -9 -10 -9 -16 -1 -21 7 -5 8 -11 1 -19
-6 -7 -6 -17 -1 -26 5 -8 5 -21 -1 -32 -7 -12 -6 -18 1 -18 7 0 8 -6 0 -19 -7
-14 -7 -22 0 -26 8 -5 8 -11 0 -20 -8 -9 -8 -15 0 -20 6 -3 7 -11 4 -17 -9
-15 -11 -107 -2 -101 5 2 4 -7 -2 -21 -6 -17 -6 -26 1 -26 6 0 6 -7 -1 -19 -7
-14 -7 -22 0 -26 7 -5 8 -11 1 -19 -6 -7 -6 -18 -1 -26 4 -7 5 -23 0 -35 -4
-12 -4 -29 1 -38 7 -12 6 -17 -2 -17 -8 0 -8 -4 1 -15 7 -8 9 -15 5 -15 -4 0
-2 -6 4 -14 8 -10 9 -16 1 -21 -5 -3 -10 -11 -10 -16 0 -6 4 -8 8 -5 12 7 9
-38 -3 -46 -7 -5 -7 -8 0 -8 6 0 10 -26 10 -60 -1 -33 3 -60 8 -60 5 0 3 -8
-4 -17 -10 -11 -10 -14 -1 -9 9 5 12 -3 12 -31 0 -22 6 -45 13 -52 10 -11 9
-12 -3 -6 -13 8 -13 7 -1 -8 11 -14 11 -17 0 -17 -11 0 -11 -2 -1 -9 7 -4 12
-12 11 -17 -5 -29 2 -55 14 -48 9 6 9 5 0 -7 -10 -12 -9 -21 2 -42 8 -15 10
-25 5 -22 -6 4 -10 1 -10 -4 0 -6 4 -11 9 -11 6 0 8 -9 6 -20 -2 -11 -1 -20 3
-20 4 0 9 -8 10 -17 2 -25 8 -45 16 -65 4 -9 5 -21 2 -26 -3 -6 1 -12 9 -15 8
-4 12 -15 10 -26 -2 -11 3 -22 12 -26 13 -4 14 -8 5 -17 -15 -15 -16 -32 -2
-23 6 3 10 -2 10 -12 0 -11 6 -25 13 -32 10 -11 9 -12 -1 -6 -11 6 -11 3 -3
-14 6 -12 16 -30 21 -41 5 -11 10 -27 10 -35 0 -10 5 -13 13 -9 7 5 6 0 -3
-11 -9 -11 -10 -16 -2 -11 7 4 12 1 12 -9 0 -9 4 -14 8 -11 5 3 8 -8 7 -24 -1
-20 3 -30 12 -30 8 0 12 -4 8 -9 -3 -5 3 -17 12 -27 10 -10 17 -19 16 -21 -7
-8 -2 -34 5 -29 4 2 9 -5 9 -17 1 -12 7 -23 13 -25 5 -2 8 -7 5 -12 -3 -5 3
-16 12 -26 10 -10 18 -20 18 -23 0 -3 4 -5 9 -3 5 2 5 -3 -1 -10 -8 -9 -7 -16
2 -25 7 -6 15 -10 17 -8 2 2 5 -6 5 -18 1 -12 7 -23 13 -25 5 -2 10 -13 10
-23 0 -11 5 -17 10 -14 6 3 10 -1 10 -9 0 -9 5 -16 11 -16 5 0 7 -5 4 -10 -3
-6 1 -13 9 -16 9 -3 13 -10 10 -15 -3 -5 2 -12 10 -15 9 -3 13 -10 10 -15 -3
-5 6 -20 20 -34 15 -14 26 -34 26 -43 0 -15 2 -15 10 -2 8 13 10 12 11 -5 1
-11 1 -23 0 -27 0 -4 8 -10 19 -13 11 -4 20 -12 20 -18 0 -7 13 -26 30 -43 16
-18 27 -34 24 -37 -3 -3 4 -10 15 -17 12 -6 19 -15 16 -21 -4 -5 1 -9 10 -9
12 0 15 -5 11 -17 -4 -10 -4 -15 -1 -11 9 9 45 -23 39 -34 -3 -4 -1 -8 4 -8
11 0 52 -35 52 -44 0 -4 16 -22 35 -40 19 -19 35 -31 35 -29 0 2 7 -2 15 -11
8 -8 15 -20 15 -27 0 -7 3 -10 6 -6 9 9 44 -25 37 -36 -3 -6 -2 -7 4 -4 5 3
16 -3 23 -14 8 -10 20 -19 27 -19 7 0 13 -4 13 -10 0 -5 7 -10 17 -10 9 0 14
-3 10 -6 -9 -9 19 -34 38 -34 9 0 13 -4 10 -10 -3 -5 -2 -10 4 -10 6 0 20 -10
33 -23 13 -13 31 -26 41 -30 11 -4 15 -12 11 -19 -4 -7 -4 -10 1 -6 4 4 14 3
22 -3 7 -6 13 -8 13 -5 0 4 6 1 14 -6 8 -7 11 -17 8 -22 -3 -5 0 -6 5 -3 6 4
23 -6 39 -21 15 -15 24 -21 20 -14 -7 11 -4 11 13 0 12 -7 21 -16 21 -21 0 -4
4 -6 9 -2 6 3 13 0 18 -7 10 -17 49 -38 68 -38 8 0 20 -9 27 -19 6 -10 17 -17
23 -15 7 3 18 -2 25 -11 7 -8 19 -15 26 -15 8 0 14 -5 14 -11 0 -5 4 -8 9 -4
5 3 12 1 16 -5 4 -6 11 -8 16 -5 5 4 12 -1 15 -10 6 -13 8 -14 15 -3 7 10 9 9
9 -5 0 -14 5 -17 21 -12 14 5 19 3 15 -3 -6 -11 48 -34 58 -25 3 4 6 1 6 -6 0
-9 8 -11 21 -8 14 4 19 2 15 -8 -3 -9 3 -12 20 -10 13 1 24 -2 24 -7 0 -5 5
-6 10 -3 6 3 10 1 10 -4 0 -6 14 -11 31 -11 20 0 28 -4 23 -12 -4 -6 -3 -8 3
-5 5 3 20 0 34 -7 13 -7 30 -11 37 -8 6 2 12 -1 12 -7 0 -6 7 -8 15 -5 8 4 15
1 15 -6 0 -6 4 -9 9 -5 5 3 12 1 15 -4 3 -5 15 -7 26 -4 13 3 20 0 20 -8 0
-11 2 -11 10 1 6 10 10 11 10 3 0 -7 8 -13 18 -13 10 0 24 -6 31 -12 11 -11
12 -10 6 1 -5 9 1 7 19 -4 18 -12 26 -14 26 -5 0 9 3 10 13 1 8 -6 17 -8 20
-4 4 3 7 2 7 -4 0 -5 14 -9 30 -8 17 1 30 -1 30 -5 0 -3 14 -5 30 -4 17 1 30
-3 30 -9 0 -7 5 -5 10 3 6 10 10 11 10 3 0 -7 10 -13 23 -13 52 0 87 -5 87
-13 0 -4 9 -3 19 2 14 8 22 7 32 -5 10 -12 14 -12 21 -2 6 11 10 10 17 -1 5
-7 11 -9 14 -5 8 14 64 9 83 -7 12 -9 15 -10 10 -1 -8 14 3 16 23 3 9 -6 22
-6 33 0 12 7 18 6 18 -1 0 -7 6 -8 19 -1 10 6 21 7 25 4 12 -12 36 -12 36 0 0
8 3 8 8 2 9 -13 52 -15 52 -3 0 5 6 6 13 1 16 -10 38 -10 58 -1 8 3 21 3 29
-2 8 -5 21 -5 31 0 9 5 19 6 23 3 10 -10 86 -9 86 1 0 4 7 2 17 -5 17 -14 20
-14 41 3 6 6 12 7 12 2 0 -5 11 -10 25 -10 14 -1 25 3 25 10 0 7 3 7 8 1 10
-14 52 -15 52 -1 0 7 3 8 8 1 4 -6 16 -11 27 -11 11 0 23 5 27 11 5 7 8 7 8
-1 0 -6 14 -9 33 -7 42 5 47 5 80 0 15 -3 27 0 27 7 0 7 3 7 8 1 8 -12 32 -13
50 -2 6 5 12 4 12 -1 0 -10 30 -9 47 1 6 4 14 3 17 -2 5 -8 57 -6 82 3 6 2 17
0 24 -4 8 -5 21 -5 31 0 9 5 19 6 23 3 10 -10 46 -11 46 -1 0 5 8 4 18 -1 10
-5 24 -6 32 -1 12 7 23 5 51 -12 3 -1 13 3 22 11 10 7 17 9 17 4 0 -5 19 -8
43 -6 57 5 58 5 90 0 15 -3 27 0 27 7 0 7 3 7 8 1 8 -12 32 -13 50 -2 6 5 12
4 12 -1 0 -10 30 -9 47 1 6 4 14 3 17 -2 5 -8 57 -6 82 3 6 2 17 0 24 -4 8 -5
21 -5 31 0 9 5 19 6 23 3 10 -10 46 -11 46 -1 0 5 8 4 18 -1 10 -5 24 -6 32
-1 8 5 22 4 34 -2 22 -12 24 -12 44 4 6 6 12 6 12 2 0 -5 20 -9 45 -10 25 0
45 5 45 11 0 7 3 7 8 0 4 -6 16 -11 27 -11 11 0 23 5 27 11 5 6 8 6 8 -2 0
-12 30 -10 50 2 6 3 10 2 10 -4 0 -9 31 -8 48 3 4 2 14 1 22 -4 8 -5 21 -5 31
0 9 5 19 6 23 2 11 -10 66 -9 66 1 0 5 6 5 13 -1 15 -13 29 -13 45 0 6 6 12 7
12 2 0 -5 11 -10 25 -10 14 -1 25 3 25 10 0 7 3 7 8 1 10 -14 52 -15 52 -1 0
7 3 8 8 1 4 -6 16 -11 27 -11 11 0 23 5 27 11 5 6 8 6 8 0 0 -11 50 -12 68 -1
7 4 12 3 12 -2 0 -7 33 -8 50 -2 3 1 10 1 15 0 32 -7 56 -6 61 2 3 4 10 6 15
2 17 -10 59 -12 59 -2 0 5 6 6 13 1 19 -12 77 -11 77 1 0 8 3 8 8 1 4 -6 16
-11 27 -11 11 0 23 5 27 11 5 6 8 6 8 -2 0 -11 30 -11 48 1 4 2 14 1 22 -4 9
-5 19 -5 27 2 8 6 13 6 13 1 0 -11 29 -11 48 1 6 4 12 4 12 -1 0 -4 22 -8 50
-8 27 0 50 4 50 9 0 5 6 4 13 -2 20 -17 23 -17 40 -3 10 7 17 10 17 5 0 -5 11
-10 25 -10 14 -1 25 3 25 10 0 7 3 7 8 1 10 -14 52 -15 52 -1 0 7 3 8 8 1 4
-6 16 -11 27 -11 11 0 23 5 27 11 5 6 8 6 8 0 0 -11 50 -12 68 -1 7 4 12 3 12
-2 0 -7 33 -8 50 -2 3 1 10 1 15 0 32 -7 56 -6 61 2 3 4 10 6 15 2 17 -10 59
-12 59 -2 0 5 6 6 13 1 19 -12 77 -11 77 1 0 8 3 8 8 1 4 -6 16 -11 27 -11 11
0 23 5 27 11 5 6 8 6 8 -2 0 -11 30 -11 48 1 4 2 14 1 22 -4 9 -5 19 -5 27 2
8 6 13 6 13 1 0 -11 29 -11 48 1 6 4 12 4 12 -1 0 -4 22 -8 50 -8 27 0 50 4
50 9 0 5 6 4 13 -2 20 -17 23 -17 40 -3 10 7 17 10 17 5 0 -5 11 -10 25 -10
14 -1 25 3 25 10 0 7 3 8 8 1 4 -6 16 -11 27 -11 11 0 23 5 27 11 5 7 8 7 8 0
0 -6 11 -11 25 -11 14 0 25 5 25 11 0 6 3 7 8 0 9 -12 62 -14 62 -2 0 4 6 5
13 0 17 -11 41 -10 49 2 5 7 8 7 8 0 0 -9 62 -12 80 -5 3 1 10 1 15 0 32 -7
55 -6 55 2 0 5 6 6 13 1 19 -12 77 -11 77 1 0 8 3 8 8 1 4 -6 16 -11 27 -11
11 0 23 5 27 11 5 6 8 6 8 -2 0 -11 30 -11 48 1 4 2 14 1 22 -4 9 -5 19 -5 27
2 8 6 13 6 13 1 0 -11 29 -11 48 1 6 4 12 4 12 -1 0 -4 22 -8 50 -8 27 0 50 4
50 9 0 5 7 2 17 -5 9 -8 17 -14 18 -14 1 0 9 6 18 14 10 7 17 10 17 5 0 -5 11
-10 25 -10 14 -1 25 3 25 10 0 7 3 7 8 1 10 -14 52 -15 52 -1 0 7 3 8 8 1 4
-6 16 -11 27 -11 11 0 23 5 27 11 5 6 8 6 8 0 0 -11 50 -12 68 -1 7 4 12 3 12
-2 0 -7 33 -8 50 -2 3 1 10 1 15 0 32 -7 56 -6 61 2 3 4 10 6 15 2 18 -10 59
-12 59 -1 0 6 5 6 13 0 13 -9 88 -10 104 0 5 3 15 2 23 -3 8 -5 21 -5 31 1 10
5 20 5 23 1 4 -7 40 -8 56 -2 3 1 10 1 15 0 32 -7 55 -6 55 2 0 5 6 6 13 1 19
-12 77 -11 77 1 0 8 3 8 8 1 4 -6 16 -11 27 -11 11 0 23 5 27 11 5 6 8 6 8 -2
0 -11 30 -11 48 1 4 2 14 1 22 -4 9 -5 19 -5 27 2 8 6 13 6 13 1 0 -11 29 -11
48 1 6 4 12 4 12 -1 0 -4 22 -8 50 -8 27 0 50 4 50 9 0 5 7 2 17 -5 17 -14 20
-14 41 3 6 6 12 7 12 2 0 -5 11 -10 25 -10 14 -1 25 3 25 10 0 7 3 7 8 1 10
-14 52 -15 52 -1 0 7 3 8 8 1 4 -6 16 -11 27 -11 11 0 23 5 27 11 5 6 8 6 8 0
0 -11 50 -12 68 -1 7 4 12 3 12 -2 0 -7 33 -8 50 -2 3 1 10 1 15 0 32 -7 56
-6 61 2 3 4 10 6 15 2 17 -10 59 -12 59 -2 0 5 6 6 13 1 16 -10 87 -10 87 0 0
5 6 5 13 0 17 -11 41 -10 49 2 5 7 8 7 8 0 0 -9 62 -12 80 -5 3 1 10 1 15 0
32 -7 55 -6 55 2 0 5 6 6 13 1 19 -12 77 -11 77 1 0 8 3 8 8 1 4 -6 16 -11 27
-11 11 0 23 5 27 11 5 6 8 6 8 -2 0 -11 30 -11 48 1 4 2 14 1 22 -4 9 -5 19
-5 27 2 8 6 13 6 13 1 0 -11 29 -11 48 1 6 4 12 4 12 -1 0 -4 22 -8 50 -8 27
0 50 4 50 9 0 5 6 4 13 -2 20 -17 23 -17 40 -3 10 7 17 10 17 5 0 -5 11 -10
25 -10 14 -1 25 3 25 10 0 7 3 7 8 1 10 -14 52 -15 52 -1 0 7 3 8 8 1 4 -6 16
-11 27 -11 11 0 23 5 27 11 5 6 8 6 8 0 0 -11 50 -12 68 -1 7 4 12 3 12 -2 0
-7 33 -8 50 -2 3 1 10 1 15 0 32 -7 56 -6 61 2 3 4 10 6 15 2 18 -10 59 -12
59 -1 0 6 5 6 13 0 13 -9 88 -10 104 0 5 3 15 2 23 -3 8 -5 21 -5 31 1 10 5
20 5 23 1 4 -7 40 -8 56 -2 3 1 10 1 15 0 32 -7 55 -6 55 2 0 5 6 6 13 1 19
-12 77 -11 77 1 0 8 3 8 8 1 4 -6 16 -11 27 -11 11 0 23 5 27 11 5 6 8 6 8 -2
0 -11 30 -11 48 1 4 2 14 1 22 -4 9 -5 19 -5 27 2 8 6 13 6 13 1 0 -11 29 -11
48 1 6 4 12 4 12 -1 0 -4 22 -8 50 -8 27 0 50 4 50 9 0 5 7 2 17 -5 20 -17 16
-17 36 0 10 7 17 10 17 5 0 -5 11 -10 25 -10 14 -1 25 3 25 10 0 7 3 7 8 1 10
-14 52 -15 52 -1 0 7 3 8 8 1 9 -14 45 -14 54 0 5 6 8 6 8 0 0 -11 50 -12 68
-1 7 4 12 3 12 -2 0 -7 33 -8 50 -2 3 1 10 1 15 0 32 -7 56 -6 61 2 3 4 10 6
15 2 17 -10 59 -12 59 -2 0 5 6 6 13 1 16 -10 87 -10 87 0 0 5 6 5 13 0 17
-11 41 -10 49 2 5 7 8 7 8 0 0 -9 62 -12 80 -5 3 1 10 1 15 0 32 -7 55 -6 55
2 0 5 6 6 13 1 19 -12 77 -11 77 1 0 8 3 8 8 1 9 -14 45 -14 54 0 5 6 8 6 8
-2 0 -11 30 -11 48 1 4 2 14 1 22 -4 9 -5 19 -5 27 2 8 6 13 6 13 1 0 -11 29
-11 48 1 6 4 12 4 12 -1 0 -4 22 -8 50 -8 27 0 50 4 50 9 0 5 6 4 13 -2 20
-17 23 -17 40 -3 10 7 17 10 17 5 0 -5 11 -10 25 -10 14 -1 25 3 25 10 0 7 3
7 8 1 10 -14 52 -15 52 -1 0 7 3 8 8 1 4 -6 16 -11 27 -11 11 0 23 5 27 11 5
6 8 6 8 0 0 -11 50 -12 68 -1 7 4 12 3 12 -2 0 -7 33 -8 50 -2 3 1 10 1 15 0
34 -7 55 -6 55 4 0 7 3 7 8 1 8 -12 32 -13 50 -2 6 5 12 4 12 -1 0 -10 30 -9
48 2 7 4 12 2 12 -6 0 -9 3 -9 10 2 8 13 10 13 10 0 0 -11 3 -11 12 -2 16 16
31 15 22 0 -6 -10 -4 -10 7 -2 8 6 40 11 72 10 31 0 57 3 57 8 0 6 7 1 15 -10
10 -12 14 -14 13 -5 -2 11 9 15 42 17 25 1 47 3 50 4 3 1 8 2 13 1 4 0 7 4 7
9 0 7 6 7 20 0 14 -8 20 -8 20 0 0 6 4 8 10 5 5 -3 18 -1 29 5 13 6 22 6 26 0
3 -5 12 -7 20 -4 8 4 13 9 11 13 -2 3 11 7 30 8 73 4 84 6 84 14 0 5 7 6 15 3
8 -4 15 -1 15 6 0 10 3 10 15 0 11 -9 15 -9 15 -1 0 7 5 9 10 6 6 -3 10 -1 10
6 0 8 4 8 16 -1 12 -11 15 -11 12 1 -2 9 5 14 22 13 14 -1 28 3 32 9 3 6 17
12 30 13 46 6 63 10 84 22 12 6 24 8 28 5 3 -3 6 -1 6 5 0 7 11 12 25 12 14 0
25 4 25 10 0 5 3 9 8 9 20 -3 43 2 38 9 -2 4 4 9 15 10 43 4 49 6 49 14 0 4 6
7 13 5 6 -1 11 4 9 12 -3 12 0 12 12 2 12 -10 16 -9 25 6 6 10 11 14 11 8 0
-5 5 -3 10 5 6 10 10 11 10 2 0 -7 8 -4 21 9 13 13 27 18 39 14 14 -5 18 -2
15 7 -4 9 2 14 15 15 11 1 27 8 35 15 38 34 45 39 45 28 0 -8 5 -7 15 2 33 30
45 38 55 38 5 0 10 5 10 11 0 5 5 7 10 4 6 -3 10 -1 10 5 0 6 5 8 10 5 6 -3
10 -1 10 5 0 6 4 9 8 6 5 -3 14 3 22 14 7 10 19 16 27 13 7 -3 13 0 13 6 0 6
11 16 25 23 13 6 22 15 19 19 -3 5 2 9 10 9 15 0 38 15 71 47 8 7 18 13 23 13
5 0 15 7 22 15 7 8 16 12 21 9 5 -3 6 3 2 12 -4 11 -2 15 4 11 6 -4 21 7 33
23 12 16 26 27 30 25 4 -3 19 10 34 27 14 18 26 29 26 25 0 -4 6 -2 14 5 8 7
13 15 11 18 -2 3 3 11 11 18 8 7 14 10 14 7 0 -3 10 5 22 17 13 13 22 27 20
32 -2 5 4 6 13 2 9 -3 13 -2 10 3 -3 5 -1 12 5 16 6 4 7 11 4 17 -4 7 -2 8 5
4 6 -4 18 0 27 8 8 9 12 16 7 16 -4 0 5 9 20 19 16 10 29 22 29 27 0 5 4 8 10
6 5 -1 7 2 4 7 -3 5 7 22 23 37 17 15 28 31 25 36 -3 4 2 8 10 8 9 0 16 7 16
15 0 8 9 19 20 25 11 6 20 17 20 26 0 8 7 17 15 20 8 4 13 10 10 14 -3 4 2 11
11 14 9 4 14 9 11 12 -8 9 16 33 27 26 5 -3 6 0 3 5 -4 6 0 16 9 23 8 7 12 20
9 29 -3 8 -3 12 1 9 9 -10 44 36 44 57 0 9 5 13 10 10 6 -3 10 0 10 8 0 8 9
24 20 37 12 13 18 29 16 36 -3 8 1 11 9 8 9 -4 13 2 11 19 -2 17 2 24 13 23 9
0 15 5 13 13 -1 7 3 19 9 27 6 8 8 14 3 14 -5 0 -1 5 9 11 9 5 17 19 17 29 0
11 4 20 10 20 5 0 9 3 8 8 -1 4 3 17 10 28 6 12 8 24 5 28 -3 3 -1 6 6 6 7 0
9 5 6 10 -3 6 -1 10 5 10 7 0 10 6 8 12 -3 7 1 19 9 26 7 8 11 18 8 23 -4 5
-1 9 5 9 7 0 10 7 6 15 -3 8 -1 15 5 15 6 0 8 4 5 9 -3 5 1 12 9 15 13 5 14
10 4 27 -6 13 -7 19 -1 15 9 -5 27 27 24 44 0 3 7 14 16 24 16 18 16 19 -2 12
-19 -6 -19 -6 -3 12 9 10 17 26 17 36 0 9 4 15 9 12 4 -3 7 6 5 19 -1 14 2 25
6 25 5 0 7 9 5 20 -2 11 1 20 6 20 6 0 9 11 7 24 -1 13 3 31 11 39 7 9 11 23
8 31 -3 8 -1 17 6 20 8 3 7 5 -2 5 -11 1 -10 5 5 17 10 8 13 12 5 8 -11 -6
-13 -3 -7 12 5 10 9 25 9 32 0 7 7 10 16 7 12 -5 11 -2 -3 14 -12 13 -14 21
-6 26 6 4 9 13 6 21 -3 8 -2 14 3 14 5 0 7 11 6 25 -2 14 0 25 4 25 3 0 6 18
4 40 -1 24 2 38 8 35 12 -8 7 18 -6 27 -7 5 -6 8 1 8 5 0 11 19 13 43 1 23 3
51 5 62 2 11 -1 25 -6 32 -6 7 -3 15 9 22 10 6 13 11 5 11 -14 0 -12 31 3 42
6 5 5 8 -3 8 -9 0 -10 5 -3 18 5 10 6 24 1 32 -5 8 -5 21 0 30 5 9 5 22 0 30
-5 8 -6 18 -4 22 11 17 12 48 2 48 -6 0 -5 7 3 17 12 14 12 16 0 8 -10 -5 -12
-4 -7 3 13 22 15 52 3 52 -8 0 -8 3 -2 8 6 4 11 16 11 27 0 11 -5 23 -11 27
-7 5 -7 8 1 8 12 0 13 58 1 78 -5 6 -4 12 1 12 10 0 8 42 -2 59 -4 5 -2 12 2
15 8 5 9 29 2 61 -1 6 -1 12 0 15 6 17 5 50 -2 50 -5 0 -6 5 -2 12 11 18 10
68 -1 68 -7 0 -7 3 0 8 14 10 15 52 1 52 -7 0 -8 3 -1 8 14 9 14 45 0 54 -7 5
-6 8 1 8 7 0 11 11 10 25 0 14 -5 25 -10 25 -5 0 -4 6 1 13 11 14 11 27 0 45
-5 6 -4 12 0 12 10 0 11 50 1 65 -4 6 -3 17 2 25 5 8 5 21 0 31 -5 9 -7 19 -4
21 10 11 12 48 3 48 -6 0 -7 4 -4 10 12 20 14 50 2 50 -8 0 -8 3 -2 8 6 4 11
16 11 27 0 11 -5 23 -11 27 -7 5 -7 8 0 8 6 0 11 20 11 45 -1 25 -5 45 -10 45
-4 0 -4 6 2 13 12 14 13 27 2 48 -5 8 -5 21 0 29 5 8 4 22 -1 32 -5 10 -6 18
-1 18 10 0 9 36 -1 46 -3 4 -2 14 3 23 5 10 5 23 0 31 -4 7 -6 18 -4 24 9 25
11 77 3 82 -5 3 -6 11 -2 17 10 17 11 47 1 47 -5 0 -6 6 -1 13 11 17 10 41 -2
49 -6 5 -6 8 1 8 7 0 10 12 7 28 -5 31 -5 32 0 90 2 23 -1 42 -6 42 -5 0 -5 6
1 13 12 14 13 27 2 48 -5 8 -5 21 0 29 5 8 4 22 -1 32 -5 10 -6 18 -1 18 10 0
9 36 -1 46 -3 4 -2 14 3 23 5 10 5 23 0 31 -4 7 -6 18 -4 24 9 25 11 77 3 82
-5 3 -6 11 -2 17 10 17 11 47 1 47 -5 0 -6 6 -1 13 11 17 10 41 -2 49 -6 5 -6
8 1 8 7 0 10 12 7 28 -5 32 -5 37 0 80 2 18 -1 32 -7 32 -7 0 -8 3 -1 8 14 10
15 52 1 52 -7 0 -8 3 -1 8 6 4 11 16 11 27 0 11 -5 23 -11 27 -7 5 -6 8 1 8 7
0 11 11 10 25 0 14 -5 25 -10 25 -5 0 -4 6 1 12 11 15 11 28 0 46 -5 6 -5 12
0 12 4 0 8 23 8 50 0 28 -4 50 -8 50 -5 0 -5 6 -1 12 12 19 12 48 1 48 -5 0
-5 5 1 13 7 8 7 18 2 27 -5 8 -6 18 -4 22 12 18 12 48 1 48 -8 0 -8 3 -2 8 6
4 11 16 11 27 0 11 -5 23 -11 27 -7 5 -7 8 1 8 12 0 13 58 1 78 -5 6 -4 12 1
12 10 0 8 42 -2 59 -4 5 -2 12 2 15 8 5 9 29 2 61 -1 6 -1 12 0 15 6 17 5 50
-2 50 -5 0 -6 5 -2 12 11 18 10 68 -1 68 -7 0 -7 3 0 8 14 10 15 52 1 52 -7 0
-8 3 -1 8 14 9 14 45 0 54 -7 5 -6 8 1 8 7 0 11 11 10 25 0 14 -5 25 -10 25
-5 0 -4 6 2 13 17 20 17 23 3 40 -7 10 -10 17 -5 17 5 0 9 23 9 50 0 28 -4 50
-8 50 -5 0 -5 6 -1 12 12 19 12 48 1 48 -5 0 -5 5 1 13 7 8 7 18 2 27 -5 8 -6
18 -4 22 12 18 12 48 1 48 -8 0 -8 3 -2 8 6 4 11 16 11 27 0 11 -5 23 -11 27
-7 5 -7 8 1 8 12 0 13 58 1 78 -5 6 -4 12 1 12 10 0 8 42 -2 59 -4 5 -2 12 2
15 8 5 9 29 2 61 -1 6 -1 12 0 15 6 17 5 50 -2 50 -5 0 -6 5 -2 12 11 18 10
68 -1 68 -7 0 -7 3 0 8 14 10 15 52 1 52 -7 0 -8 3 -1 8 14 9 14 45 0 54 -7 5
-6 8 1 8 7 0 11 11 10 25 0 14 -5 25 -10 25 -5 0 -2 7 5 17 8 9 14 17 14 18 0
1 -6 9 -14 18 -7 10 -9 17 -4 17 10 0 11 49 1 65 -4 6 -3 17 2 25 5 8 5 21 0
31 -5 9 -7 19 -4 21 10 11 12 48 3 48 -6 0 -7 4 -4 10 12 20 14 50 2 50 -8 0
-8 3 -2 8 6 4 11 16 11 27 0 11 -5 23 -11 27 -7 5 -7 8 0 8 6 0 11 20 11 45
-1 25 -5 45 -10 45 -4 0 -4 6 2 13 16 19 16 21 4 43 -6 12 -7 26 -2 34 5 8 4
22 -1 32 -5 10 -6 18 -1 18 10 0 9 36 -1 46 -3 4 -2 14 3 23 5 10 5 23 0 31
-4 7 -6 18 -4 24 9 25 11 77 3 82 -5 3 -6 11 -2 17 10 17 11 47 1 47 -5 0 -6
6 -1 13 11 17 10 41 -2 49 -6 5 -6 8 1 8 7 0 10 12 7 28 -5 31 -5 32 0 90 2
23 -1 42 -6 42 -5 0 -5 6 1 13 16 19 16 21 4 43 -6 12 -7 26 -2 34 5 8 4 22
-1 32 -5 10 -6 18 -1 18 10 0 9 36 -1 46 -3 4 -2 14 3 23 5 10 5 23 0 31 -4 7
-6 18 -4 24 9 25 11 77 3 82 -5 3 -6 11 -2 17 10 17 11 47 1 47 -5 0 -6 6 -1
13 11 17 10 41 -2 49 -6 5 -6 8 1 8 7 0 10 12 7 28 -5 31 -5 32 0 90 2 23 -1
42 -6 42 -4 0 -5 6 0 13 10 16 11 29 2 48 -4 8 -4 21 1 29 5 8 4 22 -1 32 -5
10 -6 18 -1 18 10 0 9 36 -1 46 -3 4 -2 14 3 23 5 10 5 23 0 31 -4 7 -6 18 -4
24 9 25 11 77 3 82 -5 3 -6 11 -2 17 10 17 11 47 1 47 -5 0 -6 6 -1 13 11 17
10 41 -2 49 -6 5 -6 8 1 8 7 0 10 12 7 28 -5 31 -5 32 0 90 2 23 -1 42 -6 42
-4 0 -5 6 0 13 10 16 11 29 2 48 -4 8 -4 21 1 29 5 8 4 22 -1 32 -5 10 -6 18
-1 18 10 0 9 36 -1 46 -3 4 -2 14 3 23 5 10 5 23 0 31 -4 7 -6 18 -4 24 9 25
11 77 3 82 -5 3 -6 11 -2 17 10 17 11 47 1 47 -5 0 -6 6 -1 13 11 17 10 41 -2
49 -6 5 -6 8 1 8 7 0 10 12 7 28 -5 32 -5 37 0 80 2 18 -1 32 -7 32 -7 0 -8 3
-1 8 14 10 15 52 1 52 -7 0 -8 3 -1 8 6 4 11 16 11 27 0 11 -5 23 -11 27 -7 5
-6 8 1 8 7 0 11 11 10 25 0 14 -5 25 -10 25 -5 0 -4 6 1 13 11 14 11 27 0 45
-5 6 -5 12 0 12 4 0 8 23 8 50 0 28 -4 50 -8 50 -5 0 -5 6 -1 12 12 19 12 48
1 48 -5 0 -5 5 1 13 7 8 7 18 2 27 -5 8 -6 18 -4 22 12 18 12 48 1 48 -8 0 -8
3 -2 8 6 4 11 16 11 27 0 11 -5 23 -11 27 -7 5 -7 8 1 8 12 0 13 58 1 78 -5 6
-4 12 1 12 10 0 8 42 -2 59 -4 5 -2 12 2 15 8 5 9 29 2 61 -1 6 -1 12 0 15 6
17 5 50 -2 50 -5 0 -6 5 -2 12 11 18 10 68 -1 68 -7 0 -7 3 0 8 14 10 15 52 1
52 -7 0 -8 3 -1 8 6 4 11 16 11 27 0 11 -5 23 -11 27 -7 5 -6 8 1 8 7 0 11 11
10 25 0 14 -5 25 -10 25 -5 0 -4 6 1 13 11 14 11 27 0 45 -5 6 -5 12 0 12 4 0
8 23 8 50 0 28 -4 50 -8 50 -5 0 -5 6 -1 12 12 19 12 48 1 48 -5 0 -5 5 1 13
7 8 7 18 2 27 -5 8 -6 18 -4 22 12 18 12 48 1 48 -8 0 -8 3 -2 8 6 4 11 16 11
27 0 11 -5 23 -11 27 -7 5 -7 8 1 8 12 0 13 58 1 78 -5 6 -4 12 1 12 10 0 8
42 -2 59 -4 5 -2 12 2 15 8 5 9 29 2 61 -1 6 -1 12 0 15 6 17 5 50 -2 50 -5 0
-6 5 -2 12 11 18 10 68 -1 68 -7 0 -7 3 0 8 14 10 15 52 1 52 -7 0 -8 3 -1 8
14 9 14 45 0 54 -7 5 -6 8 1 8 7 0 11 11 10 25 0 14 -5 25 -10 25 -5 0 -4 6 1
13 11 14 11 27 0 45 -5 6 -4 12 0 12 10 0 11 50 1 65 -4 6 -3 17 2 25 5 8 5
21 0 31 -5 9 -7 19 -4 21 10 11 12 48 3 48 -6 0 -7 4 -4 10 12 20 14 50 2 50
-8 0 -8 3 -2 8 6 4 11 16 11 27 0 11 -5 23 -11 27 -7 5 -7 8 0 8 6 0 11 20 11
45 -1 25 -4 45 -9 45 -4 0 -5 6 0 13 10 16 11 29 2 48 -4 8 -4 21 1 29 5 8 4
22 -1 32 -5 10 -6 18 -1 18 10 0 9 36 -1 46 -3 4 -2 14 3 23 5 10 5 23 0 31
-4 7 -6 18 -4 24 9 25 11 77 3 82 -5 3 -6 11 -2 17 11 18 11 47 0 47 -6 0 -6
5 0 13 11 14 11 27 0 45 -5 6 -4 12 1 12 10 0 8 47 -2 57 -3 4 -1 12 5 19 7 8
7 14 0 18 -6 4 -7 15 -1 30 5 15 5 27 -2 34 -6 6 -6 12 1 16 14 9 2 37 -13 30
-6 -3 -2 2 8 10 17 14 15 20 -5 18 -4 -1 -3 14 1 33 4 20 5 37 1 39 -3 2 -6
23 -5 45 0 23 -4 41 -9 41 -5 0 -4 6 2 14 7 8 8 17 4 19 -5 3 -10 20 -11 38
-1 18 -7 38 -13 45 -7 8 -7 14 1 19 6 3 7 12 3 18 -13 21 -14 50 -1 59 9 5 7
8 -6 8 -11 0 -16 3 -13 6 3 4 2 15 -4 25 -7 14 -6 19 2 19 6 0 1 9 -12 20 -21
17 -21 19 -4 13 20 -7 20 -7 1 21 -11 18 -13 26 -5 21 11 -6 12 -5 2 6 -7 7
-13 26 -13 41 0 15 -4 28 -9 28 -5 0 -12 7 -15 16 -4 9 -2 13 5 8 8 -4 8 -1 1
12 -5 11 -8 27 -7 37 2 9 -1 15 -6 11 -5 -3 -10 -2 -10 3 -1 4 -3 21 -5 38 -2
16 -8 31 -14 33 -5 2 -8 8 -4 13 3 5 -1 9 -8 9 -9 0 -9 3 2 10 11 7 11 10 2
10 -7 0 -10 5 -7 10 3 6 2 10 -4 10 -6 0 -7 7 -4 17 4 11 3 14 -5 9 -11 -7
-17 13 -13 38 1 5 -3 12 -9 16 -6 4 -12 13 -13 21 -2 8 -6 20 -10 27 -5 6 -5
17 -1 24 5 7 2 9 -8 6 -11 -5 -15 0 -14 15 1 15 -4 21 -14 19 -12 -3 -12 -1
-3 9 9 9 8 15 -3 26 -8 8 -12 19 -9 24 4 5 -2 9 -12 9 -15 0 -16 2 -3 10 9 6
10 10 3 10 -11 0 -29 37 -25 53 1 4 -4 7 -11 7 -8 0 -14 6 -14 13 0 7 -10 27
-22 43 -12 17 -24 39 -25 50 -2 10 -9 18 -16 16 -8 -2 -10 3 -7 13 4 8 2 15
-4 15 -6 0 -7 5 -4 10 3 6 -1 13 -9 16 -9 3 -13 10 -10 15 3 5 -2 9 -10 9 -9
0 -15 3 -14 8 4 15 -14 52 -23 47 -5 -4 -9 3 -9 15 0 12 -4 18 -10 15 -5 -3
-10 0 -10 8 0 8 -7 20 -15 27 -8 7 -13 16 -10 20 3 4 -2 11 -11 14 -8 3 -12
11 -9 16 4 6 3 10 -2 9 -4 -1 -14 -1 -22 0 -11 1 -11 4 0 18 10 12 10 14 1 9
-7 -4 -15 0 -19 11 -9 23 -28 43 -43 43 -6 0 -9 4 -6 9 3 5 -1 11 -9 15 -8 3
-15 13 -15 21 0 9 -4 13 -10 10 -5 -3 -10 1 -10 9 0 9 -4 16 -10 16 -5 0 -10
7 -10 17 0 9 -3 13 -7 10 -3 -4 -13 2 -20 13 -8 11 -19 17 -25 14 -6 -4 -9 -3
-5 2 8 14 -20 47 -34 38 -7 -4 -10 -3 -5 4 3 6 2 13 -4 17 -6 4 -7 11 -4 17 4
7 2 8 -4 4 -7 -4 -12 -2 -12 4 0 7 -7 9 -16 6 -8 -3 -12 -2 -9 4 3 5 -6 17
-20 26 -13 9 -22 20 -20 25 3 5 -5 11 -19 15 -14 3 -25 9 -24 13 2 19 -3 31
-12 26 -6 -4 -20 5 -31 19 -11 14 -27 26 -35 26 -8 0 -13 4 -10 9 4 5 -7 15
-23 22 -16 7 -27 17 -25 21 3 4 -2 8 -11 8 -9 0 -13 5 -10 10 3 6 -3 10 -15
10 -11 0 -23 7 -26 15 -4 8 -11 12 -17 8 -6 -4 -8 0 -4 10 4 11 2 14 -9 10 -7
-3 -14 0 -14 6 0 6 -6 11 -14 11 -7 0 -19 7 -26 15 -7 9 -19 14 -26 11 -8 -3
-13 -2 -13 2 3 20 -3 28 -21 29 -12 1 -30 12 -41 25 -11 13 -17 17 -14 10 6
-11 3 -11 -14 0 -12 7 -21 16 -21 21 0 4 -4 5 -10 2 -5 -3 -10 -1 -10 5 0 6
-4 8 -10 5 -5 -3 -10 -1 -10 6 0 7 -3 10 -6 6 -3 -3 -17 5 -31 18 -16 14 -36
22 -54 21 -24 -2 -26 0 -16 13 9 11 9 13 0 8 -6 -4 -14 -3 -18 2 -3 5 -14 8
-25 6 -12 -2 -17 1 -14 9 3 9 -3 13 -18 12 -13 0 -22 4 -21 11 2 7 -6 10 -17
8 -11 -2 -20 0 -20 6 0 5 -7 9 -16 9 -9 0 -12 5 -8 13 5 8 2 8 -9 -2 -11 -9
-17 -10 -17 -2 0 6 -9 11 -20 11 -11 0 -20 5 -20 11 0 5 -4 8 -9 4 -5 -3 -12
-1 -16 5 -4 6 -11 8 -16 5 -5 -4 -9 -1 -9 6 0 7 -3 9 -7 6 -3 -4 -17 0 -31 9
-13 9 -21 11 -17 4 4 -7 -4 -4 -19 5 -14 10 -26 14 -26 10 0 -4 -7 -2 -15 5
-8 7 -22 10 -30 6 -8 -3 -15 -1 -15 5 0 6 -7 8 -16 5 -8 -3 -12 -2 -9 4 4 6
-7 10 -25 10 -22 0 -29 4 -24 13 5 8 2 8 -9 -2 -12 -9 -17 -10 -17 -2 0 7 -4
10 -9 6 -5 -3 -12 -1 -16 4 -3 6 -12 8 -20 4 -8 -3 -15 0 -15 7 0 9 -4 9 -17
-1 -10 -7 -14 -9 -10 -4 13 15 -84 34 -102 21 -11 -8 -13 -8 -7 2 5 8 0 12
-18 12 -14 0 -28 5 -31 10 -4 7 -12 7 -25 0 -13 -7 -19 -6 -23 3 -3 8 -23 12
-56 11 -28 -1 -51 2 -51 7 0 6 -10 9 -22 8 -13 -1 -45 -1 -71 -1 -36 2 -46 5
-41 15 5 8 2 7 -9 -2 -10 -8 -20 -11 -24 -8 -3 4 -12 2 -20 -5 -9 -7 -13 -8
-11 -1 2 6 -1 11 -7 11 -5 0 -9 -5 -7 -11 2 -6 -3 -5 -12 2 -17 14 -96 21 -96
8 0 -4 -8 -3 -18 2 -13 7 -23 6 -30 -1 -9 -9 -12 -9 -12 0 0 10 -5 10 -20 2
-14 -8 -20 -8 -20 0 0 7 -6 8 -18 1 -11 -6 -24 -6 -35 0 -12 7 -17 6 -17 -3 0
-9 -3 -9 -12 0 -7 7 -17 8 -28 2 -9 -5 -22 -5 -30 0 -8 5 -22 4 -32 -1 -12 -7
-18 -6 -18 1 0 8 -6 8 -20 0 -11 -6 -20 -7 -20 -2 0 4 -9 8 -20 8 -11 0 -20
-4 -20 -9 0 -5 -6 -5 -13 2 -10 8 -17 7 -25 -1 -9 -9 -12 -9 -12 0 0 9 -5 10
-18 3 -11 -6 -24 -6 -35 0 -12 7 -17 6 -17 -3 0 -9 -3 -9 -12 0 -7 7 -17 8
-28 2 -9 -5 -22 -5 -29 0 -8 4 -27 4 -42 0 -18 -5 -29 -5 -29 1 0 6 -6 6 -18
0 -11 -6 -24 -6 -32 -1 -9 5 -19 5 -27 -2 -8 -6 -13 -6 -13 -1 0 11 -29 11
-47 0 -6 -4 -15 -3 -18 3 -5 8 -11 7 -21 -1 -8 -6 -14 -7 -14 -2 0 5 -9 9 -20
9 -11 0 -20 -4 -20 -9 0 -4 -5 -5 -12 -1 -17 11 -58 11 -58 1 0 -4 -9 -3 -19
3 -14 7 -22 7 -26 0 -5 -8 -11 -8 -20 0 -10 8 -15 8 -20 0 -5 -8 -10 -8 -20 0
-9 7 -15 8 -19 1 -5 -7 -15 -7 -32 -1 -18 7 -23 7 -18 -1 4 -8 0 -8 -15 0 -16
9 -21 9 -21 0 0 -8 -4 -8 -13 -1 -8 7 -18 7 -27 2 -8 -5 -21 -5 -30 0 -9 5
-22 5 -30 0 -8 -5 -22 -4 -32 1 -13 7 -18 6 -18 -2 0 -8 -4 -8 -13 -1 -8 7
-18 7 -27 2 -8 -5 -18 -6 -23 -3 -15 9 -57 10 -57 1 0 -5 -9 -4 -19 2 -14 7
-22 7 -26 0 -5 -8 -11 -8 -20 0 -10 8 -15 8 -20 0 -5 -8 -11 -8 -19 -1 -7 6
-16 8 -19 4 -10 -10 -57 -10 -57 0 0 4 -8 3 -18 -2 -11 -6 -24 -6 -32 -1 -9 5
-19 5 -27 -2 -8 -6 -13 -6 -13 -1 0 11 -29 11 -47 0 -6 -4 -15 -3 -18 3 -5 8
-11 7 -21 -1 -8 -6 -14 -7 -14 -2 0 5 -9 9 -20 9 -11 0 -20 -5 -20 -10 0 -6
-5 -5 -11 1 -8 8 -20 8 -35 3 -16 -6 -24 -6 -24 1 0 6 -7 6 -20 -1 -11 -6 -20
-7 -20 -2 0 4 -9 8 -20 8 -11 0 -20 -4 -20 -9 0 -5 -6 -5 -13 2 -10 8 -17 7
-25 -1 -9 -9 -12 -9 -12 0 0 9 -5 10 -18 3 -11 -6 -24 -6 -35 0 -12 7 -17 6
-17 -3 0 -9 -3 -9 -12 0 -7 7 -17 8 -28 2 -9 -5 -22 -5 -30 0 -8 5 -22 4 -32
-1 -12 -7 -18 -6 -18 1 0 8 -6 8 -20 0 -11 -6 -20 -7 -20 -2 0 4 -9 8 -20 8
-11 0 -20 -4 -20 -9 0 -5 -6 -5 -13 2 -10 8 -17 7 -25 -1 -9 -9 -12 -9 -12 0
0 9 -5 10 -18 3 -11 -6 -24 -6 -35 0 -12 7 -17 6 -17 -3 0 -9 -3 -9 -12 0 -7
7 -17 8 -28 2 -9 -5 -22 -5 -29 0 -8 4 -27 4 -42 0 -18 -5 -29 -5 -29 1 0 6
-6 6 -18 0 -11 -6 -24 -6 -32 -1 -9 5 -19 5 -27 -2 -8 -6 -13 -6 -13 -1 0 11
-29 11 -47 0 -6 -4 -15 -3 -18 3 -5 8 -11 7 -21 -1 -8 -6 -14 -7 -14 -2 0 5
-9 9 -20 9 -11 0 -20 -4 -20 -9 0 -4 -5 -5 -12 -1 -17 11 -58 11 -58 1 0 -4
-9 -3 -19 3 -14 7 -22 7 -26 0 -5 -8 -11 -8 -20 0 -10 8 -15 8 -20 0 -5 -8
-10 -8 -20 0 -9 7 -15 8 -19 1 -5 -7 -15 -7 -32 -1 -18 7 -23 7 -18 -1 4 -8 0
-8 -15 0 -16 9 -21 9 -21 0 0 -8 -4 -8 -13 -1 -8 7 -18 7 -27 2 -8 -5 -21 -5
-30 0 -9 5 -22 5 -30 0 -8 -5 -22 -4 -32 1 -13 7 -18 6 -18 -2 0 -8 -4 -8 -13
-1 -8 7 -18 7 -27 2 -8 -5 -18 -6 -23 -3 -15 9 -57 10 -57 1 0 -5 -9 -4 -19 2
-14 7 -22 7 -26 0 -5 -8 -11 -8 -20 0 -10 8 -15 8 -20 0 -5 -8 -11 -8 -19 -1
-7 6 -16 8 -19 4 -10 -10 -57 -10 -57 0 0 4 -8 3 -18 -2 -11 -6 -24 -6 -32 -1
-9 5 -19 5 -27 -2 -8 -6 -13 -6 -13 -1 0 11 -29 11 -47 0 -6 -4 -15 -3 -18 3
-5 8 -11 7 -21 -1 -8 -6 -14 -7 -14 -2 0 5 -9 9 -20 9 -11 0 -20 -4 -20 -9 0
-4 -5 -5 -12 -1 -17 11 -58 11 -65 1 -2 -4 -11 -3 -18 3 -10 8 -15 8 -20 0 -5
-8 -10 -8 -20 0 -10 8 -15 8 -20 0 -5 -8 -10 -8 -20 0 -9 7 -15 8 -19 1 -5 -7
-15 -7 -32 -1 -18 7 -23 7 -18 -1 4 -8 0 -8 -15 0 -16 9 -21 9 -21 0 0 -8 -4
-8 -13 -1 -8 7 -18 7 -27 2 -8 -5 -21 -5 -30 0 -9 5 -22 5 -30 0 -8 -5 -22 -4
-32 1 -13 7 -18 6 -18 -2 0 -8 -4 -8 -13 -1 -8 7 -18 7 -27 2 -8 -5 -18 -6
-23 -3 -15 9 -57 10 -57 1 0 -5 -9 -4 -19 2 -14 7 -22 7 -26 0 -5 -8 -11 -8
-20 0 -10 8 -15 8 -20 0 -5 -8 -10 -8 -20 0 -10 8 -15 8 -20 0 -5 -8 -10 -8
-20 0 -10 8 -15 8 -20 0 -5 -8 -10 -8 -20 0 -10 8 -15 8 -20 0 -5 -8 -10 -8
-20 0 -10 8 -15 8 -20 0 -5 -8 -10 -8 -20 0 -9 7 -15 8 -19 1 -5 -7 -15 -7
-32 -1 -18 7 -23 7 -18 -1 4 -8 0 -8 -15 0 -16 9 -21 9 -21 0 0 -8 -4 -8 -13
-1 -8 7 -18 7 -27 2 -8 -5 -21 -5 -30 0 -9 5 -22 5 -30 0 -8 -5 -22 -4 -32 1
-13 7 -18 6 -18 -2 0 -8 -4 -8 -13 -1 -8 7 -18 7 -27 2 -8 -5 -18 -6 -23 -3
-15 9 -57 10 -57 1 0 -5 -9 -4 -19 2 -14 7 -22 7 -26 0 -5 -8 -11 -8 -20 0
-10 8 -15 8 -20 0 -5 -8 -10 -8 -20 0 -10 8 -15 8 -20 0 -5 -8 -10 -8 -20 0
-10 8 -15 8 -20 0 -5 -8 -10 -8 -20 0 -10 8 -15 8 -20 0 -5 -8 -10 -8 -20 0
-10 8 -15 8 -20 0 -5 -8 -10 -8 -20 0 -9 7 -15 8 -19 1 -5 -7 -15 -7 -32 -1
-18 7 -23 7 -18 -1 4 -8 0 -8 -15 0 -16 9 -21 9 -21 0 0 -8 -4 -8 -13 -1 -8 7
-18 7 -27 2 -8 -5 -21 -5 -30 0 -9 5 -22 5 -30 0 -8 -5 -22 -4 -32 1 -13 7
-18 6 -18 -2 0 -8 -4 -8 -13 -1 -8 7 -18 7 -27 2 -8 -5 -18 -6 -23 -3 -15 9
-57 10 -57 1 0 -5 -9 -4 -19 2 -14 7 -22 7 -26 0 -5 -8 -11 -8 -20 0 -10 8
-15 8 -20 0 -5 -8 -10 -8 -20 0 -10 8 -15 8 -20 0 -5 -8 -10 -8 -20 0 -10 8
-15 8 -20 0 -5 -8 -10 -8 -20 0 -10 8 -15 8 -20 0 -5 -8 -10 -8 -20 0 -10 8
-15 8 -20 0 -5 -8 -10 -8 -20 0 -9 7 -15 8 -19 1 -5 -7 -15 -7 -32 -1 -18 7
-23 7 -18 -1 4 -8 0 -8 -15 0 -16 9 -21 9 -21 0 0 -8 -4 -8 -13 -1 -8 7 -18 7
-27 2 -8 -5 -21 -5 -30 0 -9 5 -22 5 -30 0 -8 -5 -22 -4 -32 1 -13 7 -18 6
-18 -2 0 -8 -4 -8 -13 -1 -8 7 -18 7 -27 2 -8 -5 -18 -6 -23 -3 -15 9 -57 10
-57 1 0 -5 -9 -4 -19 2 -14 7 -22 7 -26 0 -5 -8 -11 -8 -20 0 -10 8 -15 8 -20
0 -5 -8 -11 -8 -19 -1 -7 6 -16 8 -19 4 -10 -10 -57 -10 -57 0 0 4 -8 3 -18
-2 -11 -6 -24 -6 -32 -1 -9 5 -19 5 -27 -2 -8 -6 -13 -6 -13 -1 0 11 -29 11
-47 0 -6 -4 -15 -3 -18 3 -5 8 -11 7 -21 -1 -8 -6 -14 -7 -14 -2 0 5 -9 9 -20
9 -11 0 -20 -4 -20 -9 0 -4 -5 -5 -12 -1 -17 11 -58 11 -58 1 0 -4 -9 -3 -19
3 -14 7 -22 7 -26 0 -5 -8 -11 -8 -20 0 -10 8 -15 8 -20 0 -5 -8 -10 -8 -20 0
-9 7 -15 8 -19 1 -5 -7 -15 -7 -32 -1 -18 7 -23 7 -18 -1 4 -8 0 -8 -15 0 -16
9 -21 9 -21 0 0 -8 -4 -8 -13 -1 -8 7 -18 7 -27 2 -8 -5 -21 -5 -30 0 -9 5
-22 5 -30 0 -8 -5 -22 -4 -32 1 -13 7 -18 6 -18 -2 0 -8 -4 -8 -13 -1 -8 7
-18 7 -27 2 -8 -5 -18 -6 -23 -3 -15 9 -57 10 -57 1 0 -5 -9 -4 -19 2 -14 7
-22 7 -26 0 -5 -8 -11 -8 -20 0 -10 8 -15 8 -20 0 -5 -8 -11 -8 -19 -1 -7 6
-16 8 -19 4 -10 -10 -57 -10 -57 0 0 4 -8 3 -18 -2 -11 -6 -24 -6 -32 -1 -9 5
-19 5 -27 -2 -8 -6 -13 -6 -13 -1 0 11 -29 11 -47 0 -6 -4 -15 -3 -18 3 -5 8
-11 7 -21 -1 -8 -6 -14 -7 -14 -2 0 5 -9 9 -20 9 -11 0 -20 -5 -20 -10 0 -6
-5 -5 -11 1 -8 8 -20 8 -35 3 -16 -6 -24 -6 -24 1 0 6 -7 6 -20 -1 -11 -6 -20
-7 -20 -2 0 4 -9 8 -20 8 -11 0 -20 -4 -20 -9 0 -5 -6 -5 -13 2 -10 8 -17 7
-25 -1 -9 -9 -12 -9 -12 0 0 9 -5 10 -18 3 -11 -6 -24 -6 -35 0 -12 7 -17 6
-17 -3 0 -9 -3 -9 -12 0 -7 7 -17 8 -28 2 -9 -5 -22 -5 -30 0 -8 5 -22 4 -32
-1 -12 -7 -18 -6 -18 1 0 8 -6 8 -20 0 -11 -6 -20 -7 -20 -2 0 4 -9 8 -20 8
-11 0 -20 -4 -20 -9 0 -5 -6 -5 -13 2 -10 8 -17 7 -25 -1 -9 -9 -12 -9 -12 0
0 9 -5 10 -18 3 -11 -6 -24 -6 -35 0 -12 7 -17 6 -17 -3 0 -9 -3 -9 -12 0 -7
7 -17 8 -28 2 -9 -5 -22 -5 -29 0 -8 4 -27 4 -42 0 -18 -5 -29 -5 -29 1 0 6
-6 6 -18 0 -11 -6 -24 -6 -32 -1 -9 5 -19 5 -27 -2 -8 -6 -13 -6 -13 -1 0 11
-29 11 -47 0 -6 -4 -15 -3 -18 3 -5 8 -11 7 -21 -1 -8 -6 -14 -7 -14 -2 0 5
-9 9 -20 9 -11 0 -20 -4 -20 -9 0 -4 -5 -5 -12 -1 -17 11 -58 11 -58 1 0 -4
-9 -3 -19 3 -14 7 -22 7 -26 0 -5 -8 -11 -8 -20 0 -10 8 -15 8 -20 0 -5 -8
-10 -8 -20 0 -9 7 -15 8 -19 1 -5 -7 -15 -7 -32 -1 -18 7 -23 7 -18 -1 4 -8 0
-8 -15 0 -16 9 -21 9 -21 0 0 -8 -4 -8 -13 -1 -8 7 -18 7 -27 2 -8 -5 -21 -5
-30 0 -9 5 -22 5 -30 0 -8 -5 -22 -4 -32 1 -13 7 -18 6 -18 -2 0 -8 -4 -8 -13
-1 -8 7 -18 7 -27 2 -8 -5 -18 -6 -23 -3 -15 9 -57 10 -57 1 0 -5 -9 -4 -19 2
-14 7 -22 7 -26 0 -5 -8 -11 -8 -20 0 -10 8 -15 8 -20 0 -5 -8 -11 -8 -19 -1
-7 6 -16 8 -19 4 -10 -10 -57 -10 -57 0 0 4 -8 3 -18 -2 -11 -6 -24 -6 -32 -1
-9 5 -19 5 -27 -2 -8 -6 -13 -6 -13 -1 0 11 -29 11 -47 0 -6 -4 -15 -3 -18 3
-5 8 -11 7 -21 -1 -8 -6 -14 -7 -14 -2 0 5 -9 9 -20 9 -11 0 -20 -5 -20 -10 0
-6 -5 -5 -11 1 -8 8 -20 8 -35 3 -16 -6 -24 -6 -24 1 0 6 -7 6 -20 -1 -11 -6
-20 -7 -20 -2 0 4 -9 8 -20 8 -11 0 -20 -5 -20 -10 0 -6 -5 -5 -12 2 -8 8 -15
9 -25 1 -9 -9 -13 -8 -13 0 0 8 -6 9 -18 2 -11 -6 -24 -6 -35 0 -12 7 -17 6
-17 -3 0 -9 -3 -9 -12 0 -7 7 -17 8 -28 2 -9 -5 -22 -5 -30 0 -8 5 -22 4 -32
-1 -12 -7 -18 -6 -18 1 0 8 -6 8 -20 0 -11 -6 -20 -7 -20 -2 0 4 -9 8 -20 8
-11 0 -20 -4 -20 -9 0 -5 -6 -5 -13 2 -10 8 -17 7 -25 -1 -9 -9 -12 -9 -12 0
0 9 -5 10 -17 3 -11 -6 -24 -6 -35 0 -13 7 -18 6 -18 -3 0 -9 -3 -9 -12 0 -7
7 -17 8 -28 2 -9 -5 -22 -5 -29 0 -8 4 -27 4 -42 0 -18 -5 -29 -5 -29 1 0 6
-6 6 -18 0 -11 -6 -24 -6 -32 -1 -9 5 -19 5 -27 -2 -8 -6 -13 -6 -13 -1 0 11
-29 11 -47 0 -6 -4 -15 -3 -18 3 -5 8 -11 7 -21 -1 -8 -6 -14 -7 -14 -2 0 5
-9 9 -20 9 -11 0 -20 -5 -20 -10 0 -6 -5 -5 -11 1 -7 7 -21 8 -40 3 -17 -5
-29 -5 -29 0 0 6 -11 5 -26 0 -14 -6 -23 -7 -21 -2 6 9 -75 8 -90 -1 -7 -4
-14 -3 -18 3 -4 6 -13 7 -23 1 -11 -6 -24 -6 -35 0 -12 7 -17 6 -17 -2 0 -9
-3 -9 -14 0 -10 8 -16 9 -21 1 -4 -7 -12 -7 -24 0 -10 5 -21 6 -25 3 -12 -12
-48 -14 -40 -2 3 6 -5 4 -19 -5 -21 -14 -27 -15 -39 -3 -12 12 -16 12 -27 0z"/>
<path d="M24116 23087 c3 -10 9 -15 12 -12 3 3 0 11 -7 18 -10 9 -11 8 -5 -6z"/>
</g>
</svg>
