<svg width="18" height="18" viewBox="0 0 18 18" fill="none" xmlns="http://www.w3.org/2000/svg">
  <path d="M1.99097 6.74137C2.42921 5.50195 3.20203 4.40806 4.22383 3.58092" stroke="white" stroke-width="1.06667"
        stroke-linecap="round" stroke-linejoin="round"/>
  <path d="M1.57776 9.11173C1.57776 9.94453 1.72788 10.7394 1.99099 11.482" stroke="white" stroke-width="1.06667"
        stroke-linecap="round" stroke-linejoin="round"/>
  <path
    d="M14.6613 3.11243C14.7851 3.23632 14.8833 3.38338 14.9503 3.54523C15.0174 3.70708 15.0519 3.88054 15.0518 4.05571C15.0518 4.23088 15.0172 4.40432 14.9502 4.56614C14.8831 4.72796 14.7848 4.87499 14.6609 4.99882C14.537 5.12266 14.39 5.22088 14.2281 5.28788C14.0663 5.35488 13.8928 5.38935 13.7176 5.38931C13.5424 5.38928 13.369 5.35473 13.2071 5.28767C13.0454 5.2206 12.8983 5.12232 12.7745 4.99843C12.5244 4.74823 12.3839 4.40892 12.384 4.05515C12.3841 3.70138 12.5247 3.36213 12.7749 3.11203C13.0251 2.86193 13.3644 2.72147 13.7182 2.72154C14.0719 2.72162 14.4112 2.86223 14.6613 3.11243Z"
    stroke="white" stroke-width="1.06667" stroke-linecap="round" stroke-linejoin="round"/>
  <path
    d="M12.6813 3.22758C11.8035 2.63142 10.8034 2.23944 9.75429 2.08042C8.70514 1.92141 7.63379 1.9994 6.61877 2.30868"
    stroke="white" stroke-width="1.06667" stroke-linecap="round" stroke-linejoin="round"/>
  <path
    d="M7.85193 6.78681L10.9192 8.60092C11.0078 8.65333 11.0812 8.72794 11.1321 8.81737C11.1832 8.9068 11.21 9.00798 11.21 9.11093C11.21 9.21388 11.1832 9.31504 11.1321 9.40446C11.0812 9.49388 11.0078 9.56855 10.9192 9.62091L7.85193 11.435C7.76191 11.4883 7.6594 11.5168 7.55479 11.5176C7.4502 11.5185 7.34724 11.4916 7.25639 11.4398C7.16554 11.3879 7.09004 11.3129 7.03754 11.2225C6.98505 11.132 6.95744 11.0293 6.95752 10.9246V7.29723C6.95744 7.19262 6.98505 7.08987 7.03754 6.99939C7.09004 6.90892 7.16554 6.83395 7.25639 6.7821C7.34724 6.73025 7.4502 6.70338 7.55479 6.7042C7.6594 6.70503 7.76191 6.73354 7.85193 6.78681Z"
    stroke="white" stroke-width="1.06667" stroke-linecap="round" stroke-linejoin="round"/>
  <path d="M4.22394 14.6208C3.88415 14.3519 3.56993 14.0522 3.28528 13.7256" stroke="white" stroke-width="1.06667"
        stroke-linecap="round" stroke-linejoin="round"/>
  <path
    d="M6.61877 15.9142C7.68157 16.2377 8.80532 16.3075 9.89998 16.1183C10.9947 15.9291 12.0298 15.4861 12.9224 14.8247C13.8149 14.1634 14.5402 13.302 15.0399 12.3099C15.5395 11.3177 15.7999 10.2223 15.7999 9.11137C15.7999 8.68234 15.7556 8.26437 15.6829 7.85667"
    stroke="white" stroke-width="1.06667" stroke-linecap="round" stroke-linejoin="round"/>
</svg>
