<svg width="18" height="18" viewBox="0 0 18 18" fill="none" xmlns="http://www.w3.org/2000/svg">
  <path
    d="M8.31557 7.04332L11.1912 8.74405C11.2742 8.7932 11.343 8.86314 11.3908 8.94699C11.4386 9.03083 11.4638 9.12569 11.4638 9.2222C11.4638 9.31872 11.4386 9.41356 11.3908 9.49739C11.343 9.5813 11.2742 9.65116 11.1912 9.70032L8.31557 11.4011C8.23118 11.4511 8.13507 11.4777 8.03701 11.4785C7.93894 11.4793 7.84242 11.4541 7.75725 11.4055C7.67207 11.3569 7.60129 11.2866 7.55207 11.2018C7.50286 11.1169 7.47698 11.0207 7.47705 10.9225V7.52183C7.47698 7.42377 7.50286 7.32743 7.55207 7.2426C7.60129 7.15779 7.67207 7.0875 7.75725 7.0389C7.84242 6.99029 7.93894 6.96509 8.03701 6.96588C8.13507 6.96665 8.23118 6.99337 8.31557 7.04332Z"
    stroke="white" stroke-width="1.06667" stroke-linecap="round" stroke-linejoin="round"/>
  <path
    d="M13.5445 15.8889H4.65569C4.06632 15.8889 3.50109 15.6548 3.08434 15.2381C2.6676 14.8213 2.43347 14.256 2.43347 13.6667V4.77782C2.43347 4.18845 2.6676 3.62321 3.08434 3.20647C3.50109 2.78972 4.06632 2.5556 4.65569 2.5556H13.5445C14.134 2.5556 14.6992 2.78972 15.1159 3.20647C15.5327 3.62321 15.7668 4.18845 15.7668 4.77782V13.6667C15.7668 14.256 15.5327 14.8213 15.1159 15.2381C14.6992 15.6548 14.134 15.8889 13.5445 15.8889Z"
    stroke="white" stroke-width="1.06667" stroke-linecap="round" stroke-linejoin="round"/>
</svg>
